<svg width="24" height="24" viewBox="0 0 24 24" fill="none" xmlns="http://www.w3.org/2000/svg">
  <path d="M2 14.2C3.6 12.6 5.1 11.8 7.1 11.4L9.5 8.7C10.1 8 11 7.6 11.9 7.6H15.1C16 7.6 16.8 8 17.4 8.7L19.5 11.3C20.6 11.5 21.4 12 22 12.8V16.5H19.5C19.1 17.8 18 18.7 16.6 18.7C15.2 18.7 14.1 17.8 13.7 16.5H9.8C9.4 17.8 8.3 18.7 6.9 18.7C5.5 18.7 4.4 17.8 4 16.5H2V14.2Z" stroke="currentColor" stroke-width="1.75" stroke-linejoin="round"/>
  <path d="M8.1 11.3H12.1L13.4 8.9" stroke="currentColor" stroke-width="1.5" stroke-linecap="round" stroke-linejoin="round"/>
  <path d="M13.6 11.3H18.7" stroke="currentColor" stroke-width="1.5" stroke-linecap="round"/>
  <path d="M3.1 14.2H6.1" stroke="currentColor" stroke-width="1.5" stroke-linecap="round"/>
  <circle cx="6.9" cy="16.5" r="1.45" fill="currentColor"/>
  <circle cx="16.6" cy="16.5" r="1.45" fill="currentColor"/>
</svg>
